<?xml version="1.0" encoding="utf-8"?>
<!DOCTYPE svg PUBLIC "-//W3C//DTD SVG 1.1//EN" "http://www.w3.org/Graphics/SVG/1.1/DTD/svg11.dtd">
<svg version="1.1" xmlns="http://www.w3.org/2000/svg" xmlns:xlink="http://www.w3.org/1999/xlink" x="0px" y="0px"
   width="133px" height="53px" viewBox="0 0 133 53" enable-background="new 0 0 133 53" xml:space="preserve">
<g>
  <path fill="#A51A0F" d="M31.121,48.465h5.64c-0.457-3.188-0.457-6.005-0.457-9.732V18.273C36.302,6.184,31.485,1,20.028,1
    C15.935,1,9.935,2.455,6.39,4.184v5.545c4.272-2.726,8.817-3.821,13.639-3.821c7.728,0,10.546,4.004,10.546,11.916v2.36h-1.091
    c-12,0-28.551,0.728-28.551,16.273c0,4.182,2.092,13.093,15.273,13.093c5.729,0,12.186-2.997,14.732-8.547h0.183V48.465
    L31.121,48.465z M30.574,27.918c0,4.994-0.271,16.725-13.728,16.725c-5.274,0-9.64-2.271-9.64-8.365
    c0-10.184,11.817-11.185,21.729-11.185h1.638V27.918L30.574,27.918z"/>
  <path fill="#A51A0F" d="M47.697,25.275c0,12.638,6.641,24.275,21.642,24.275c15.004,0,21.645-11.638,21.645-24.275
    C90.981,12.641,84.343,1,69.339,1C54.338,1,47.697,12.641,47.697,25.275L47.697,25.275z M53.972,25.275
    c0-10.729,5.365-19.368,15.367-19.368s15.363,8.64,15.363,19.368s-5.361,19.367-15.363,19.367S53.972,36.004,53.972,25.275
    L53.972,25.275z"/>
  <polygon fill="#A51A0F" points="97.513,48.465 132.065,48.465 132.065,43.55 104.151,43.55 132.065,7.003 132.065,2.092
    98.61,2.092 98.61,7.003 125.425,7.003 97.513,43.645   "/>
</g>
</svg>
